# Blender v2.91.2 OBJ File: 'book.blend'
# www.blender.org
mtllib book.mtl
o Cube_Mesh
v -4.000000 0.500000 4.000000
v -4.000000 0.500000 -4.000000
v 4.000000 0.500000 4.000000
v 4.000000 0.500000 -4.000000
v -4.200000 0.500000 4.000000
v -4.200000 0.500000 -4.236921
v 4.236921 0.500000 4.000000
v 4.236921 0.500000 -4.236921
v -4.200000 0.753507 4.000000
v -4.200000 0.753507 -4.236921
v 4.236921 0.753507 4.000000
v 4.236921 0.753507 -4.236921
v -4.200000 0.146318 4.435049
v 4.237016 0.146318 4.435049
v -4.200000 0.287013 4.409761
v 4.237016 0.287013 4.409761
v -4.200000 0.416678 4.368697
v 4.237016 0.416678 4.368697
v -4.200000 0.530330 4.313434
v 4.237016 0.530330 4.313434
v -4.200000 0.623603 4.246095
v 4.237016 0.623603 4.246095
v -4.200000 0.692910 4.169269
v 4.237016 0.692910 4.169269
v -4.200000 0.735589 4.085907
v 4.237016 0.735589 4.085907
v -4.200000 0.750000 4.000000
v 4.237016 0.750000 4.000000
v -4.000000 0.000000 4.000000
v -4.000000 -0.500000 4.000000
v -4.000000 0.000000 -4.000000
v -4.000000 -0.500000 -4.000000
v 4.000000 0.000000 4.000000
v 4.000000 -0.500000 4.000000
v 4.000000 0.000000 -4.000000
v 4.000000 -0.500000 -4.000000
v -4.200000 -0.500000 4.000000
v -4.200000 -0.500000 -4.236921
v 4.236921 -0.500000 4.000000
v 4.236921 -0.500000 -4.236921
v -4.200000 -0.753507 4.000000
v -4.200000 -0.753507 -4.236921
v 4.236921 -0.753507 4.000000
v 4.236921 -0.753507 -4.236921
v -4.200000 0.000000 4.443588
v 4.237016 0.000000 4.443588
v -4.200000 -0.146318 4.435049
v 4.237016 -0.146318 4.435049
v -4.200000 -0.287013 4.409761
v 4.237016 -0.287013 4.409761
v -4.200000 -0.416678 4.368697
v 4.237016 -0.416678 4.368697
v -4.200000 -0.530330 4.313434
v 4.237016 -0.530330 4.313434
v -4.200000 -0.623603 4.246095
v 4.237016 -0.623603 4.246095
v -4.200000 -0.692910 4.169269
v 4.237016 -0.692910 4.169269
v -4.200000 -0.735589 4.085907
v 4.237016 -0.735589 4.085907
v -4.200000 -0.750000 4.000000
v 4.237016 -0.750000 4.000000
vt 0.714150 0.613461
vt 0.714149 0.708517
vt 0.524038 0.708517
vt 0.524038 0.613461
vt 0.372232 0.221302
vt 0.277177 0.221302
vt 0.277177 0.031190
vt 0.372232 0.031190
vt 0.467288 0.623844
vt 0.467288 0.718900
vt 0.277177 0.718900
vt 0.277177 0.623844
vt 0.224189 0.664581
vt 0.224189 0.664581
vt 0.224189 0.664581
vt 0.224189 0.664581
vt 0.912779 0.528789
vt 0.912779 0.724530
vt 0.864584 0.724530
vt 0.864584 0.528789
vt 0.215671 0.556711
vt 0.215671 0.366600
vt 0.221302 0.361847
vt 0.221302 0.562341
vt 0.025560 0.556711
vt 0.025560 0.562341
vt 0.025560 0.366600
vt 0.025560 0.361847
vt 0.912779 0.277174
vt 0.912779 0.472916
vt 0.864584 0.472916
vt 0.864584 0.277174
vt 0.813464 0.277174
vt 0.813464 0.477669
vt 0.765270 0.477669
vt 0.765270 0.277174
vt 0.173069 0.813956
vt 0.124875 0.813956
vt 0.124875 0.613461
vt 0.173069 0.613461
vt 0.025560 0.168144
vt 0.226057 0.168144
vt 0.226057 0.195960
vt 0.025560 0.195960
vt 0.226057 0.222708
vt 0.025560 0.222708
vt 0.226057 0.247359
vt 0.025560 0.247359
vt 0.226057 0.268965
vt 0.025560 0.268965
vt 0.226057 0.286698
vt 0.025560 0.286698
vt 0.226057 0.299874
vt 0.025560 0.299874
vt 0.226057 0.307987
vt 0.025560 0.307987
vt 0.226057 0.310727
vt 0.025560 0.310727
vt 0.524038 0.518406
vt 0.714150 0.518406
vt 0.467288 0.031190
vt 0.467288 0.221302
vt 0.277177 0.528789
vt 0.467288 0.528789
vt 0.714150 0.277174
vt 0.714150 0.467286
vt 0.524038 0.467286
vt 0.524038 0.277174
vt 0.224189 0.613461
vt 0.224189 0.613461
vt 0.224189 0.613461
vt 0.224189 0.613461
vt 0.870214 0.025560
vt 0.918409 0.025560
vt 0.918409 0.221302
vt 0.870214 0.221302
vt 0.472918 0.025560
vt 0.472918 0.226054
vt 0.277177 0.031190
vt 0.277177 0.025560
vt 0.277177 0.226054
vt 0.277177 0.221302
vt 0.770900 0.025560
vt 0.819094 0.025560
vt 0.819094 0.221302
vt 0.770900 0.221302
vt 0.765270 0.528789
vt 0.813464 0.528789
vt 0.813464 0.729283
vt 0.765270 0.729283
vt 0.025560 0.813956
vt 0.025560 0.613461
vt 0.073755 0.613461
vt 0.073755 0.813956
vt 0.025560 0.140327
vt 0.226057 0.140327
vt 0.025560 0.113579
vt 0.226057 0.113579
vt 0.025560 0.088928
vt 0.226057 0.088928
vt 0.025560 0.067322
vt 0.226057 0.067322
vt 0.025560 0.049590
vt 0.226057 0.049590
vt 0.025560 0.036413
vt 0.226057 0.036414
vt 0.025560 0.028300
vt 0.226057 0.028300
vt 0.025560 0.025560
vt 0.226057 0.025560
vt 0.963899 0.419758
vt 0.964101 0.391941
vt 0.964702 0.365193
vt 0.965678 0.340543
vt 0.966992 0.318936
vt 0.968592 0.301204
vt 0.970417 0.288028
vt 0.972398 0.279914
vt 0.974440 0.277174
vt 0.974440 0.562341
vt 0.972398 0.559602
vt 0.970417 0.551488
vt 0.968592 0.538312
vt 0.966991 0.520580
vt 0.965678 0.498973
vt 0.964702 0.474322
vt 0.964101 0.447575
vt 0.963899 0.756045
vt 0.964101 0.728228
vt 0.964702 0.701480
vt 0.965678 0.676830
vt 0.966991 0.655223
vt 0.968592 0.637491
vt 0.970417 0.624315
vt 0.972398 0.616201
vt 0.974440 0.613461
vt 0.974440 0.898628
vt 0.972398 0.895889
vt 0.970417 0.887775
vt 0.968592 0.874599
vt 0.966991 0.856867
vt 0.965678 0.835260
vt 0.964702 0.810609
vt 0.964101 0.783862
vt 0.529668 0.949748
vt 0.524038 0.949748
vt 0.524038 0.759637
vt 0.529668 0.759637
vt 0.529668 0.854693
vt 0.580788 0.854693
vt 0.580788 0.759637
vt 0.585541 0.759637
vt 0.585541 0.949749
vt 0.580788 0.949749
vt 0.277177 0.477669
vt 0.277177 0.277174
vt 0.472918 0.277174
vt 0.472918 0.477669
vt 0.524038 0.025560
vt 0.719780 0.025560
vt 0.719780 0.226054
vt 0.524038 0.226054
vn -1.0000 0.0000 0.0000
vn 0.0000 0.0000 -1.0000
vn 1.0000 0.0000 0.0000
vn 0.0000 0.0000 1.0000
vn 0.0000 -1.0000 0.0000
vn 0.0000 0.0583 0.9983
vn -0.0000 0.1769 0.9842
vn 0.0000 0.3019 0.9533
vn 0.0000 0.4373 0.8993
vn 0.0000 0.5854 0.8108
vn 0.0000 0.7425 0.6698
vn 0.0000 0.8901 0.4557
vn 0.0000 0.9862 0.1654
vn 0.0000 1.0000 0.0000
vn 0.0000 -0.0583 0.9983
vn -0.0000 -0.1769 0.9842
vn 0.0000 -0.3019 0.9533
vn 0.0000 -0.4373 0.8993
vn 0.0000 -0.5854 0.8108
vn 0.0000 -0.7425 0.6698
vn 0.0000 -0.8901 0.4557
vn 0.0000 -0.9862 0.1654
usemtl Material.001
s off
f 29/1/1 1/2/1 2/3/1 31/4/1
f 31/5/2 2/6/2 4/7/2 35/8/2
f 35/9/3 4/10/3 3/11/3 33/12/3
f 1/13/4 3/14/4 7/15/4 5/16/4
f 7/17/3 8/18/3 12/19/3 11/20/3
f 4/21/5 2/22/5 6/23/5 8/24/5
f 3/25/5 4/21/5 8/24/5 7/26/5
f 2/22/5 1/27/5 5/28/5 6/23/5
f 6/29/1 5/30/1 9/31/1 10/32/1
f 8/33/2 6/34/2 10/35/2 12/36/2
f 7/37/4 11/38/4 9/39/4 5/40/4
f 45/41/6 46/42/6 14/43/6 13/44/6
f 13/44/7 14/43/7 16/45/7 15/46/7
f 15/46/8 16/45/8 18/47/8 17/48/8
f 17/48/9 18/47/9 20/49/9 19/50/9
f 19/50/10 20/49/10 22/51/10 21/52/10
f 21/52/11 22/51/11 24/53/11 23/54/11
f 23/54/12 24/53/12 26/55/12 25/56/12
f 25/56/13 26/55/13 28/57/13 27/58/13
f 29/1/1 31/4/1 32/59/1 30/60/1
f 31/5/2 35/8/2 36/61/2 32/62/2
f 35/9/3 33/12/3 34/63/3 36/64/3
f 31/65/14 29/66/14 33/67/14 35/68/14
f 30/69/4 37/70/4 39/71/4 34/72/4
f 39/73/3 43/74/3 44/75/3 40/76/3
f 36/61/14 40/77/14 38/78/14 32/62/14
f 34/79/14 39/80/14 40/77/14 36/61/14
f 32/62/14 38/78/14 37/81/14 30/82/14
f 38/83/1 42/84/1 41/85/1 37/86/1
f 40/87/2 44/88/2 42/89/2 38/90/2
f 39/91/4 37/92/4 41/93/4 43/94/4
f 45/41/15 47/95/15 48/96/15 46/42/15
f 47/95/16 49/97/16 50/98/16 48/96/16
f 49/97/17 51/99/17 52/100/17 50/98/17
f 51/99/18 53/101/18 54/102/18 52/100/18
f 53/101/19 55/103/19 56/104/19 54/102/19
f 55/103/20 57/105/20 58/106/20 56/104/20
f 57/105/21 59/107/21 60/108/21 58/106/21
f 59/107/22 61/109/22 62/110/22 60/108/22
f 46/111/3 48/112/3 50/113/3 52/114/3 54/115/3 56/116/3 58/117/3 60/118/3 62/119/3 28/120/3 26/121/3 24/122/3 22/123/3 20/124/3 18/125/3 16/126/3 14/127/3
f 45/128/1 13/129/1 15/130/1 17/131/1 19/132/1 21/133/1 23/134/1 25/135/1 27/136/1 61/137/1 59/138/1 57/139/1 55/140/1 53/141/1 51/142/1 49/143/1 47/144/1
f 3/145/2 7/146/2 39/147/2 34/148/2 33/149/2
f 29/150/2 30/151/2 37/152/2 5/153/2 1/154/2
f 9/155/14 11/156/14 12/157/14 10/158/14
f 41/159/5 42/160/5 44/161/5 43/162/5
